<?xml version="1.0" encoding="utf-8"?>
<!-- Generator: Adobe Illustrator 19.0.0, SVG Export Plug-In . SVG Version: 6.00 Build 0)  -->
<svg version="1.1" id="Layer_1" xmlns="http://www.w3.org/2000/svg" xmlns:xlink="http://www.w3.org/1999/xlink" x="0px" y="0px"
	 viewBox="0 0 458.7 108.7" style="enable-background:new 0 0 458.7 108.7;" xml:space="preserve">
<style type="text/css">
	.st0{display:none;fill:#D4F4FF;}
	.st1{fill:url(#XMLID_117_);}
	.st2{fill:#0086B5;}
	.st3{fill:#494949;}
</style>
<rect id="XMLID_63_" x="-14.3" y="-94.4" class="st0" width="493.5" height="292.7"/>
<linearGradient id="XMLID_117_" gradientUnits="userSpaceOnUse" x1="5.3842" y1="48.9268" x2="118.14" y2="48.9268">
	<stop  offset="0" style="stop-color:#00B1FF"/>
	<stop  offset="0.6724" style="stop-color:#008FCE"/>
</linearGradient>
<path id="XMLID_35_" class="st1" d="M76.2,71l22.1-22.1L76.2,26.8l5.3-5.3L109,48.9L81.6,76.4L76.2,71L76.2,71z M54.1,48.9l7.6-7.6
	l7.6,7.6l-7.6,7.6L54.1,48.9L54.1,48.9z M25.2,48.9L47.3,71L42,76.4L14.5,48.9L42,21.5l5.3,5.3L25.2,48.9L25.2,48.9z M81.6,12.4
	l-9.9,9.9l-9.9-9.9l-4.4,4.4l31.9,32.2L71.7,66.5l-5.3-5.3l12.2-12.2L42,12.4L5.4,48.9L42,85.5l9.9-9.9l9.9,9.9l4.5-4.5l-32-32
	l17.5-17.5l5.3,5.3L45,48.9l36.6,36.6l36.6-36.6L81.6,12.4L81.6,12.4z"/>
<path id="XMLID_2_" class="st2" d="M127,79.9c0.5-5.2,1-11,1.3-17.5l1-21.3c0.3-7.7,0.5-14.6,0.5-20.6c3.4,0.1,6.2,0.1,8.6,0.1
	c1.7,0,4.3,0,7.6-0.1c3.3,5.7,7.8,13.2,13.6,22.4c5.8,9.2,10.4,16.8,14,22.8l1.6-40.4c0-1,0-2.6,0-4.8c2.7,0.1,4.8,0.1,6.2,0.1
	c0.6,0,2.6,0,6.1-0.1l-1.1,16L185,63.8l-0.5,16.1c-3-0.1-5.6-0.1-7.7-0.1c-1.7,0-4.4,0-8.2,0.1c-1.5-2.6-2.6-4.5-3.3-5.7
	c-1.2-1.9-3.7-5.9-7.6-11.8c-2.6-3.9-5.7-9-9.6-15.1c-2.8-4.5-5.2-8.5-7.2-11.8c-0.2,4.7-0.6,13.4-1.1,26.1
	c-0.2,5.2-0.4,11.3-0.5,18.4c-2.7-0.1-4.7-0.1-5.9-0.1C132.4,79.8,130.3,79.8,127,79.9z"/>
<path id="XMLID_4_" class="st2" d="M231.3,70c-0.4,1.7-0.9,4.8-1.6,9.2c-3.1,0.7-5.8,1.1-7.9,1.3c-2.1,0.2-4.3,0.3-6.5,0.3
	c-3.8,0-7.2-0.4-10.2-1.1c-3-0.8-5.6-2.1-7.9-4.2c-2.3-2-3.9-4.5-5-7.4c-1.1-2.9-1.6-6-1.6-9.2c0-3.6,0.6-7,1.9-10.4
	c1.2-3.3,3-6.1,5.2-8.2c2.2-2.1,4.8-3.6,7.7-4.5c2.9-0.9,5.9-1.3,9-1.3c3,0,5.8,0.4,8.4,1.1c2.7,0.7,4.9,1.9,6.7,3.6
	c1.8,1.7,3.2,3.7,4.2,6.1c1,2.4,1.5,5,1.5,7.9c0,1.4-0.1,2.8-0.4,4.2l-31.9,0c-0.1,1.1-0.1,1.9-0.1,2.6c0,1.9,0.3,3.7,1,5.4
	c0.7,1.6,1.6,3,2.9,4.1c1.3,1.1,2.8,2,4.6,2.5c1.8,0.5,3.5,0.8,5.2,0.8c2,0,4.2-0.2,6.5-0.7C225.3,71.8,228.1,71,231.3,70z
	 M203.2,52.4l20.4,0c0-1.4,0-2.4-0.1-3.1c-0.1-0.7-0.3-1.4-0.6-2.3c-0.3-0.9-0.7-1.6-1.2-2.3c-0.5-0.7-1.1-1.2-1.8-1.6
	c-0.7-0.4-1.5-0.8-2.4-1c-0.9-0.2-1.9-0.3-2.9-0.3c-1.2,0-2.4,0.2-3.5,0.6c-1.1,0.4-2.2,0.9-3.2,1.6c-1,0.7-1.7,1.5-2.3,2.4
	c-0.6,0.9-1,1.8-1.3,2.6C203.8,49.9,203.5,51,203.2,52.4z"/>
<path id="XMLID_7_" class="st2" d="M276.8,70c-0.4,1.7-0.9,4.8-1.6,9.2c-3.1,0.7-5.8,1.1-7.9,1.3c-2.1,0.2-4.3,0.3-6.5,0.3
	c-3.8,0-7.2-0.4-10.2-1.1c-3-0.8-5.6-2.1-7.9-4.2c-2.3-2-3.9-4.5-5-7.4c-1.1-2.9-1.6-6-1.6-9.2c0-3.6,0.6-7,1.9-10.4
	c1.2-3.3,3-6.1,5.2-8.2c2.2-2.1,4.8-3.6,7.7-4.5c2.9-0.9,5.9-1.3,9-1.3c3,0,5.8,0.4,8.4,1.1c2.7,0.7,4.9,1.9,6.7,3.6
	c1.8,1.7,3.2,3.7,4.2,6.1c1,2.4,1.5,5,1.5,7.9c0,1.4-0.1,2.8-0.4,4.2l-31.9,0c-0.1,1.1-0.1,1.9-0.1,2.6c0,1.9,0.3,3.7,1,5.4
	c0.7,1.6,1.6,3,2.9,4.1c1.3,1.1,2.8,2,4.6,2.5c1.8,0.5,3.5,0.8,5.2,0.8c2,0,4.2-0.2,6.5-0.7C270.8,71.8,273.6,71,276.8,70z
	 M248.7,52.4l20.4,0c0-1.4,0-2.4-0.1-3.1c-0.1-0.7-0.3-1.4-0.6-2.3s-0.7-1.6-1.2-2.3c-0.5-0.7-1.1-1.2-1.8-1.6
	c-0.7-0.4-1.5-0.8-2.4-1c-0.9-0.2-1.9-0.3-2.9-0.3c-1.2,0-2.4,0.2-3.5,0.6c-1.1,0.4-2.2,0.9-3.2,1.6c-1,0.7-1.7,1.5-2.3,2.4
	c-0.6,0.9-1,1.8-1.3,2.6C249.3,49.9,249,51,248.7,52.4z"/>
<path id="XMLID_10_" class="st2" d="M327.8,79.9c-2.4-0.1-4.3-0.1-5.6-0.1c-1.5,0-3.5,0-6,0.1l0.4-7.6c-1.3,1.7-2.4,2.9-3.3,3.8
	c-0.9,0.9-2,1.7-3.4,2.5c-1.3,0.8-2.8,1.3-4.4,1.7c-1.6,0.4-3.2,0.6-4.9,0.6c-2.8,0-5.4-0.5-7.8-1.5c-2.4-1-4.5-2.4-6.2-4.3
	c-1.7-1.8-3-4-3.8-6.6c-0.8-2.5-1.2-5.2-1.2-7.9c0-3.8,0.7-7.5,2.2-11.1c1.4-3.6,3.4-6.5,6-8.8c2.5-2.2,5.4-3.8,8.6-4.7
	c3.2-0.9,6.6-1.4,10.3-1.4c2.6,0,5.6,0.2,9,0.7c0.2-3.8,0.3-7.7,0.3-11.9v-3c2.7,0.1,4.8,0.1,6.3,0.1c1.9,0,4,0,6.4-0.1
	c-0.6,7.4-1.2,17.4-1.8,30.1S327.8,73,327.8,79.9z M317.1,43.6c-2.2-0.6-4.3-0.9-6.3-0.9c-2.3,0-4.5,0.3-6.6,1
	c-2.1,0.6-3.9,1.7-5.5,3.3s-2.8,3.5-3.7,5.9c-0.9,2.4-1.3,4.7-1.3,7c0,2.2,0.4,4.3,1.2,6.1c0.8,1.9,2,3.3,3.7,4.4
	c1.7,1.1,3.6,1.6,5.7,1.6c1.6,0,3-0.3,4.3-0.8c1.3-0.6,2.5-1.4,3.6-2.6c1.1-1.2,2-2.7,2.7-4.5c0.7-1.9,1.3-4.3,1.6-7.4
	C316.7,54.3,316.9,49.9,317.1,43.6z"/>
<path id="XMLID_15_" class="st2" d="M328.7,99.8c-0.5-4.3-0.9-7.5-1.3-9.4c2.8,1.3,5.4,2,7.9,2c0.8,0,1.5-0.1,2.3-0.3
	c0.8-0.2,1.5-0.5,2.2-0.8c0.4-0.2,0.9-0.6,1.3-1c0.4-0.4,1.1-1.2,1.8-2.4c0.8-1.2,1.5-2.3,2-3.4c0.5-1,0.9-2.2,1.4-3.7l-9-26.5
	l-6.6-18.8c3,0.1,5.2,0.1,6.6,0.1c1.5,0,3.6,0,6-0.1c0.6,2.4,1.2,4.5,1.7,6.3l4.1,13.7c1.3,4.2,2.2,7.4,2.7,9.5
	c0.3,1.4,0.8,3.2,1.2,5.5c0.9-2.6,1.6-4.8,2.3-6.4c1.1-3,2.7-7,4.7-12.1l4.2-10.4c0.8-1.9,1.5-3.9,2.3-6c2.6,0.1,4.6,0.1,6,0.1
	c1.2,0,3.3,0,6.3-0.1l-16.8,37.5l-7.3,16.6c-1,2.1-2,3.8-2.9,5c-0.8,1-1.6,1.9-2.5,2.6c-0.9,0.7-1.8,1.3-2.8,1.7
	c-1.2,0.6-2.6,1-4,1.4c-1.7,0.3-3.3,0.5-5,0.5c-1,0-2.3-0.1-4-0.3C332,100.5,330.3,100.2,328.7,99.8z"/>
<path id="XMLID_18_" class="st3" d="M380.3,79.9c0.4-4.4,0.8-8,0.9-10.9c0.3-4.6,0.6-10,0.8-16.1c0.2-6.1,0.4-11.8,0.5-17.3
	c2.8,0.1,4.9,0.1,6.4,0.1c1.3,0,3.4,0,6.3-0.1c-0.4,5-0.7,9.9-0.9,14.4c-0.2,4.6-0.4,9.8-0.5,15.8c-0.1,5.9-0.2,10.6-0.2,14.1
	c-2.6-0.1-4.8-0.1-6.4-0.1C385.6,79.8,383.3,79.8,380.3,79.9z M382.7,28c0.1-3,0.2-5.3,0.2-6.9v-1.4c2.6,0.1,4.8,0.1,6.4,0.1
	c2.3,0,4.4,0,6.3-0.1c-0.1,0.7-0.1,1.6-0.2,2.5l-0.2,5.8c-2.2-0.1-4.2-0.1-6.1-0.1C387.3,27.9,385.1,28,382.7,28z"/>
<path id="XMLID_21_" class="st3" d="M399.3,79.9c0.7-6.6,1.2-14,1.7-22.2c0.4-8.2,0.7-15.6,0.8-22.1c2.7,0.1,4.8,0.1,6.4,0.1
	c1.9,0,3.9,0,6-0.1l-0.5,7.4c0.9-1.3,1.7-2.3,2.4-3c0.7-0.8,1.6-1.5,2.6-2.2c1.1-0.7,2.2-1.3,3.4-1.7c1.2-0.4,2.6-0.8,4-1
	c1.5-0.3,3.1-0.4,4.7-0.4c2.6,0,5.1,0.3,7.4,1c2.4,0.7,4.3,1.7,5.7,3.1s2.4,3,2.9,4.7c0.5,1.7,0.7,3.5,0.7,5.4c0,0.8,0,2-0.1,3.7
	l-0.9,19c-0.1,2.6-0.2,5.5-0.2,8.4c-2.3-0.1-4.3-0.1-5.9-0.1c-2.2,0-4.4,0-6.7,0.1c0.2-2.5,0.5-6.9,0.9-13.2
	c0.3-6.3,0.5-10.4,0.5-12.5c0-2.3-0.4-4.1-1.1-5.5c-0.7-1.4-1.8-2.4-3.4-3.2c-1.5-0.7-3.2-1.1-4.9-1.1c-1.7,0-3.4,0.3-4.9,1
	c-1.5,0.7-2.8,1.6-3.9,2.9c-1.2,1.3-2.1,2.9-2.7,4.8c-0.7,2-1.2,5.4-1.5,10.1c-0.3,4.1-0.5,9.7-0.7,16.7c-2.2-0.1-4.3-0.1-6.1-0.1
	C404.1,79.8,401.9,79.8,399.3,79.9z"/>
</svg>
