<?xml version="1.0" encoding="utf-8"?>
<!-- Generator: Adobe Illustrator 19.0.0, SVG Export Plug-In . SVG Version: 6.00 Build 0)  -->
<svg version="1.1" id="Layer_1" xmlns="http://www.w3.org/2000/svg" xmlns:xlink="http://www.w3.org/1999/xlink" x="0px" y="0px"
	 viewBox="-76 342.3 458.7 108.7" style="enable-background:new -76 342.3 458.7 108.7;" xml:space="preserve">
<style type="text/css">
	.st0{display:none;fill:#D4F4FF;}
	.st1{fill:url(#XMLID_13_);}
	.st2{fill:#0088E8;}
	.st3{fill:#494949;}
</style>
<rect id="XMLID_63_" x="-90.3" y="247.9" class="st0" width="493.5" height="292.7"/>
<linearGradient id="XMLID_13_" gradientUnits="userSpaceOnUse" x1="-67.6158" y1="389.2268" x2="45.14" y2="389.2268">
	<stop  offset="0" style="stop-color:#08A1FF"/>
	<stop  offset="1" style="stop-color:#0088E8"/>
</linearGradient>
<path id="XMLID_35_" class="st1" d="M3.2,411.3l22.1-22.1L3.2,367.1l5.3-5.3L36,389.2L8.6,416.7L3.2,411.3L3.2,411.3z M-18.9,389.2
	l7.6-7.6l7.6,7.6l-7.6,7.6L-18.9,389.2L-18.9,389.2z M-47.8,389.2l22.1,22.1l-5.3,5.3l-27.4-27.4l27.4-27.4l5.3,5.3L-47.8,389.2
	L-47.8,389.2z M8.6,352.7l-9.9,9.9l-9.9-9.9l-4.4,4.4l31.9,32.2l-17.5,17.5l-5.3-5.3l12.2-12.2L-31,352.7l-36.6,36.6l36.6,36.6
	l9.9-9.9l9.9,9.9l4.5-4.5l-32-32l17.5-17.5l5.3,5.3L-28,389.2l36.6,36.6l36.6-36.6L8.6,352.7L8.6,352.7z"/>
<g id="XMLID_1_">
	<path id="XMLID_2_" class="st2" d="M54,420.2c0.5-5.2,1-11,1.3-17.5l1-21.3c0.3-7.7,0.5-14.6,0.5-20.6c3.4,0.1,6.2,0.1,8.6,0.1
		c1.7,0,4.3,0,7.6-0.1c3.3,5.7,7.8,13.2,13.6,22.4c5.8,9.2,10.4,16.8,14,22.8l1.6-40.4c0-1,0-2.6,0-4.8c2.7,0.1,4.8,0.1,6.2,0.1
		c0.6,0,2.6,0,6.1-0.1l-1.1,16l-1.3,27.3l-0.5,16.1c-3-0.1-5.6-0.1-7.7-0.1c-1.7,0-4.4,0-8.2,0.1c-1.5-2.6-2.6-4.5-3.3-5.7
		c-1.2-1.9-3.7-5.9-7.6-11.8c-2.6-3.9-5.7-9-9.6-15.1c-2.8-4.5-5.2-8.5-7.2-11.8c-0.2,4.7-0.6,13.4-1.1,26.1
		c-0.2,5.2-0.4,11.3-0.5,18.4c-2.7-0.1-4.7-0.1-5.9-0.1C59.4,420.1,57.3,420.1,54,420.2z"/>
	<path id="XMLID_4_" class="st2" d="M158.3,410.3c-0.4,1.7-0.9,4.8-1.6,9.2c-3.1,0.7-5.8,1.1-7.9,1.3c-2.1,0.2-4.3,0.3-6.5,0.3
		c-3.8,0-7.2-0.4-10.2-1.1c-3-0.8-5.6-2.1-7.9-4.2c-2.3-2-3.9-4.5-5-7.4c-1.1-2.9-1.6-6-1.6-9.2c0-3.6,0.6-7,1.9-10.4
		c1.2-3.3,3-6.1,5.2-8.2c2.2-2.1,4.8-3.6,7.7-4.5c2.9-0.9,5.9-1.3,9-1.3c3,0,5.8,0.4,8.4,1.1c2.7,0.7,4.9,1.9,6.7,3.6
		c1.8,1.7,3.2,3.7,4.2,6.1c1,2.4,1.5,5,1.5,7.9c0,1.4-0.1,2.8-0.4,4.2l-31.9,0c-0.1,1.1-0.1,1.9-0.1,2.6c0,1.9,0.3,3.7,1,5.4
		c0.7,1.6,1.6,3,2.9,4.1c1.3,1.1,2.8,2,4.6,2.5c1.8,0.5,3.5,0.8,5.2,0.8c2,0,4.2-0.2,6.5-0.7C152.3,412.1,155.1,411.3,158.3,410.3z
		 M130.2,392.7l20.4,0c0-1.4,0-2.4-0.1-3.1c-0.1-0.7-0.3-1.4-0.6-2.3c-0.3-0.9-0.7-1.6-1.2-2.3c-0.5-0.7-1.1-1.2-1.8-1.6
		c-0.7-0.4-1.5-0.8-2.4-1c-0.9-0.2-1.9-0.3-2.9-0.3c-1.2,0-2.4,0.2-3.5,0.6c-1.1,0.4-2.2,0.9-3.2,1.6c-1,0.7-1.7,1.5-2.3,2.4
		c-0.6,0.9-1,1.8-1.3,2.6C130.8,390.2,130.5,391.3,130.2,392.7z"/>
	<path id="XMLID_7_" class="st2" d="M203.8,410.3c-0.4,1.7-0.9,4.8-1.6,9.2c-3.1,0.7-5.8,1.1-7.9,1.3c-2.1,0.2-4.3,0.3-6.5,0.3
		c-3.8,0-7.2-0.4-10.2-1.1c-3-0.8-5.6-2.1-7.9-4.2c-2.3-2-3.9-4.5-5-7.4c-1.1-2.9-1.6-6-1.6-9.2c0-3.6,0.6-7,1.9-10.4
		c1.2-3.3,3-6.1,5.2-8.2c2.2-2.1,4.8-3.6,7.7-4.5c2.9-0.9,5.9-1.3,9-1.3c3,0,5.8,0.4,8.4,1.1c2.7,0.7,4.9,1.9,6.7,3.6
		c1.8,1.7,3.2,3.7,4.2,6.1c1,2.4,1.5,5,1.5,7.9c0,1.4-0.1,2.8-0.4,4.2l-31.9,0c-0.1,1.1-0.1,1.9-0.1,2.6c0,1.9,0.3,3.7,1,5.4
		c0.7,1.6,1.6,3,2.9,4.1c1.3,1.1,2.8,2,4.6,2.5c1.8,0.5,3.5,0.8,5.2,0.8c2,0,4.2-0.2,6.5-0.7C197.8,412.1,200.6,411.3,203.8,410.3z
		 M175.7,392.7l20.4,0c0-1.4,0-2.4-0.1-3.1c-0.1-0.7-0.3-1.4-0.6-2.3c-0.3-0.9-0.7-1.6-1.2-2.3c-0.5-0.7-1.1-1.2-1.8-1.6
		c-0.7-0.4-1.5-0.8-2.4-1c-0.9-0.2-1.9-0.3-2.9-0.3c-1.2,0-2.4,0.2-3.5,0.6c-1.1,0.4-2.2,0.9-3.2,1.6c-1,0.7-1.7,1.5-2.3,2.4
		c-0.6,0.9-1,1.8-1.3,2.6C176.3,390.2,176,391.3,175.7,392.7z"/>
	<path id="XMLID_10_" class="st2" d="M254.8,420.2c-2.4-0.1-4.3-0.1-5.6-0.1c-1.5,0-3.5,0-6,0.1l0.4-7.6c-1.3,1.7-2.4,2.9-3.3,3.8
		c-0.9,0.9-2,1.7-3.4,2.5c-1.3,0.8-2.8,1.3-4.4,1.7c-1.6,0.4-3.2,0.6-4.9,0.6c-2.8,0-5.4-0.5-7.8-1.5c-2.4-1-4.5-2.4-6.2-4.3
		c-1.7-1.8-3-4-3.8-6.6c-0.8-2.5-1.2-5.2-1.2-7.9c0-3.8,0.7-7.5,2.2-11.1c1.4-3.6,3.4-6.5,6-8.8c2.5-2.2,5.4-3.8,8.6-4.7
		c3.2-0.9,6.6-1.4,10.3-1.4c2.6,0,5.6,0.2,9,0.7c0.2-3.8,0.3-7.7,0.3-11.9v-3c2.7,0.1,4.8,0.1,6.3,0.1c1.9,0,4,0,6.4-0.1
		c-0.6,7.4-1.2,17.4-1.8,30.1C255.1,403.5,254.8,413.3,254.8,420.2z M244.1,383.9c-2.2-0.6-4.3-0.9-6.3-0.9c-2.3,0-4.5,0.3-6.6,1
		c-2.1,0.6-3.9,1.7-5.5,3.3c-1.6,1.5-2.8,3.5-3.7,5.9c-0.9,2.4-1.3,4.7-1.3,7s0.4,4.3,1.2,6.1c0.8,1.9,2,3.3,3.7,4.4
		c1.7,1.1,3.6,1.6,5.7,1.6c1.6,0,3-0.3,4.3-0.8c1.3-0.6,2.5-1.4,3.6-2.6c1.1-1.2,2-2.7,2.7-4.5c0.7-1.9,1.3-4.3,1.6-7.4
		C243.7,394.6,243.9,390.2,244.1,383.9z"/>
	<path id="XMLID_15_" class="st2" d="M255.7,440.1c-0.5-4.3-0.9-7.5-1.3-9.4c2.8,1.3,5.4,2,7.9,2c0.8,0,1.5-0.1,2.3-0.3
		c0.8-0.2,1.5-0.5,2.2-0.8c0.4-0.2,0.9-0.6,1.3-1c0.4-0.4,1.1-1.2,1.8-2.4c0.8-1.2,1.5-2.3,2-3.4c0.5-1,0.9-2.2,1.4-3.7l-9-26.5
		l-6.6-18.8c3,0.1,5.2,0.1,6.6,0.1c1.5,0,3.6,0,6-0.1c0.6,2.4,1.2,4.5,1.7,6.3l4.1,13.7c1.3,4.2,2.2,7.4,2.7,9.5
		c0.3,1.4,0.8,3.2,1.2,5.5c0.9-2.6,1.6-4.8,2.3-6.4c1.1-3,2.7-7,4.7-12.1l4.2-10.4c0.8-1.9,1.5-3.9,2.3-6c2.6,0.1,4.6,0.1,6,0.1
		c1.2,0,3.3,0,6.3-0.1l-16.8,37.5l-7.3,16.6c-1,2.1-2,3.8-2.9,5c-0.8,1-1.6,1.9-2.5,2.6c-0.9,0.7-1.8,1.3-2.8,1.7
		c-1.2,0.6-2.6,1-4,1.4c-1.7,0.3-3.3,0.5-5,0.5c-1,0-2.3-0.1-4-0.3C259,440.8,257.3,440.5,255.7,440.1z"/>
</g>
<path id="XMLID_18_" class="st3" d="M307.3,420.2c0.4-4.4,0.8-8,0.9-10.9c0.3-4.6,0.6-10,0.8-16.1c0.2-6.1,0.4-11.8,0.5-17.3
	c2.8,0.1,4.9,0.1,6.4,0.1c1.3,0,3.4,0,6.3-0.1c-0.4,5-0.7,9.9-0.9,14.4c-0.2,4.6-0.4,9.8-0.5,15.8c-0.1,5.9-0.2,10.6-0.2,14.1
	c-2.6-0.1-4.8-0.1-6.4-0.1C312.6,420.1,310.3,420.1,307.3,420.2z M309.7,368.3c0.1-3,0.2-5.3,0.2-6.9v-1.4c2.6,0.1,4.8,0.1,6.4,0.1
	c2.3,0,4.4,0,6.3-0.1c-0.1,0.7-0.1,1.6-0.2,2.5l-0.2,5.8c-2.2-0.1-4.2-0.1-6.1-0.1C314.3,368.2,312.1,368.3,309.7,368.3z"/>
<path id="XMLID_21_" class="st3" d="M326.3,420.2c0.7-6.6,1.2-14,1.7-22.2c0.4-8.2,0.7-15.6,0.8-22.1c2.7,0.1,4.8,0.1,6.4,0.1
	c1.9,0,3.9,0,6-0.1l-0.5,7.4c0.9-1.3,1.7-2.3,2.4-3c0.7-0.8,1.6-1.5,2.6-2.2c1.1-0.7,2.2-1.3,3.4-1.7c1.2-0.4,2.6-0.8,4-1
	s3.1-0.4,4.7-0.4c2.6,0,5.1,0.3,7.4,1c2.4,0.7,4.3,1.7,5.7,3.1s2.4,3,2.9,4.7c0.5,1.7,0.7,3.5,0.7,5.4c0,0.8,0,2-0.1,3.7l-0.9,19
	c-0.1,2.6-0.2,5.5-0.2,8.4c-2.3-0.1-4.3-0.1-5.9-0.1c-2.2,0-4.4,0-6.7,0.1c0.2-2.5,0.5-6.9,0.9-13.2c0.3-6.3,0.5-10.4,0.5-12.5
	c0-2.3-0.4-4.1-1.1-5.5c-0.7-1.4-1.8-2.4-3.4-3.2c-1.5-0.7-3.2-1.1-4.9-1.1c-1.7,0-3.4,0.3-4.9,1c-1.5,0.7-2.8,1.6-3.9,2.9
	c-1.2,1.3-2.1,2.9-2.7,4.8c-0.7,2-1.2,5.4-1.5,10.1c-0.3,4.1-0.5,9.7-0.7,16.7c-2.2-0.1-4.3-0.1-6.1-0.1
	C331.1,420.1,328.9,420.1,326.3,420.2z"/>
</svg>
