<?xml version="1.0" encoding="utf-8"?>
<!-- Generator: Adobe Illustrator 19.0.0, SVG Export Plug-In . SVG Version: 6.00 Build 0)  -->
<svg version="1.1" id="Layer_1" xmlns="http://www.w3.org/2000/svg" xmlns:xlink="http://www.w3.org/1999/xlink" x="0px" y="0px"
	 viewBox="0 0 612 121.8" style="enable-background:new 0 0 612 121.8;" xml:space="preserve">
<style type="text/css">
	.st0{fill:#FFFFFF;}
</style>
<path id="XMLID_147_" class="st0" d="M116.3,77.5l28-28l-28-28l6.8-6.8l34.7,34.7l-34.7,34.7L116.3,77.5L116.3,77.5z M88.3,49.5
	l9.7-9.7l9.7,9.7L98,59.2L88.3,49.5L88.3,49.5z M51.7,49.5l28,28l-6.8,6.8L38.2,49.5l34.7-34.7l6.8,6.8L51.7,49.5L51.7,49.5z
	 M123.1,3.3l-12.5,12.5L98,3.3l-5.6,5.6l40.3,40.7l-22.2,22.2l-6.8-6.8l15.4-15.4L72.9,3.3L26.7,49.5l46.3,46.3l12.5-12.5L98,95.8
	l5.7-5.7L63.3,49.5l22.2-22.2l6.8,6.8L76.8,49.5l46.3,46.3l46.3-46.3L123.1,3.3L123.1,3.3z"/>
<path id="XMLID_145_" class="st0" d="M180.5,88.7c0.7-6.6,1.2-13.9,1.6-22.1l1.3-27c0.4-9.8,0.7-18.4,0.7-26
	c4.3,0.1,7.9,0.1,10.8,0.1c2.2,0,5.4,0,9.6-0.1c4.2,7.2,9.9,16.7,17.2,28.3c7.3,11.6,13.2,21.3,17.7,28.9l2-51.1
	c0-1.2,0.1-3.2,0.1-6.1c3.5,0.1,6.1,0.1,7.8,0.1c0.7,0,3.3,0,7.7-0.1l-1.4,20.2l-1.7,34.6l-0.7,20.4c-3.8-0.1-7.1-0.1-9.7-0.1
	c-2.1,0-5.6,0-10.4,0.1c-1.8-3.3-3.2-5.7-4.2-7.3c-1.5-2.4-4.7-7.4-9.6-15c-3.2-5-7.3-11.4-12.1-19.2c-3.6-5.7-6.6-10.7-9.1-15
	c-0.3,5.9-0.7,17-1.4,33.1c-0.3,6.6-0.5,14.3-0.6,23.3c-3.5-0.1-6-0.1-7.5-0.1C187.4,88.6,184.7,88.6,180.5,88.7z"/>
<path id="XMLID_142_" class="st0" d="M312.6,76.2c-0.5,2.2-1.2,6.1-2,11.7c-4,0.8-7.3,1.4-10,1.7c-2.7,0.3-5.5,0.4-8.2,0.4
	c-4.8,0-9.1-0.5-12.9-1.4c-3.8-1-7.1-2.7-10-5.3c-2.9-2.5-5-5.7-6.3-9.4c-1.4-3.7-2-7.6-2-11.7c0-4.5,0.8-8.9,2.4-13.1
	c1.6-4.2,3.8-7.7,6.6-10.4c2.8-2.7,6.1-4.6,9.7-5.7c3.6-1.1,7.4-1.7,11.4-1.7c3.7,0,7.3,0.5,10.7,1.4c3.4,0.9,6.2,2.5,8.5,4.6
	c2.3,2.1,4.1,4.7,5.3,7.7c1.2,3,1.8,6.3,1.8,10c0,1.7-0.2,3.5-0.6,5.3l-40.4,0.1c-0.1,1.4-0.1,2.4-0.1,3.2c0,2.5,0.4,4.7,1.3,6.8
	c0.8,2.1,2.1,3.8,3.7,5.2c1.6,1.4,3.5,2.5,5.8,3.2c2.2,0.7,4.4,1,6.6,1c2.5,0,5.3-0.3,8.2-0.8C305,78.4,308.5,77.5,312.6,76.2z
	 M277,53.9l25.8,0.1c0-1.8-0.1-3.1-0.2-3.9c-0.1-0.8-0.4-1.8-0.7-2.9c-0.4-1.1-0.9-2-1.6-2.9c-0.7-0.8-1.4-1.5-2.3-2.1
	c-0.9-0.5-1.9-1-3.1-1.3c-1.2-0.3-2.4-0.4-3.7-0.4c-1.5,0-3,0.2-4.5,0.7c-1.5,0.5-2.8,1.2-4,2.1c-1.2,0.9-2.2,1.9-2.9,3.1
	c-0.8,1.1-1.3,2.2-1.7,3.3C277.7,50.8,277.4,52.2,277,53.9z"/>
<path id="XMLID_139_" class="st0" d="M370.1,76.2c-0.5,2.2-1.2,6.1-2,11.7c-4,0.8-7.3,1.4-10,1.7c-2.7,0.3-5.5,0.4-8.2,0.4
	c-4.8,0-9.1-0.5-12.9-1.4c-3.8-1-7.1-2.7-10-5.3c-2.9-2.5-5-5.7-6.3-9.4c-1.4-3.7-2-7.6-2-11.7c0-4.5,0.8-8.9,2.4-13.1
	c1.6-4.2,3.8-7.7,6.6-10.4c2.8-2.7,6.1-4.6,9.7-5.7c3.6-1.1,7.4-1.7,11.4-1.7c3.7,0,7.3,0.5,10.7,1.4c3.4,0.9,6.2,2.5,8.5,4.6
	c2.3,2.1,4.1,4.7,5.3,7.7c1.2,3,1.8,6.3,1.8,10c0,1.7-0.2,3.5-0.6,5.3l-40.4,0.1c-0.1,1.4-0.1,2.4-0.1,3.2c0,2.5,0.4,4.7,1.3,6.8
	c0.8,2.1,2.1,3.8,3.7,5.2c1.6,1.4,3.5,2.5,5.8,3.2c2.2,0.7,4.4,1,6.6,1c2.5,0,5.3-0.3,8.2-0.8C362.5,78.4,366.1,77.5,370.1,76.2z
	 M334.6,53.9l25.8,0.1c0-1.8-0.1-3.1-0.2-3.9c-0.1-0.8-0.4-1.8-0.7-2.9c-0.4-1.1-0.9-2-1.6-2.9c-0.7-0.8-1.4-1.5-2.3-2.1
	c-0.9-0.5-1.9-1-3.1-1.3c-1.2-0.3-2.4-0.4-3.7-0.4c-1.5,0-3,0.2-4.5,0.7c-1.5,0.5-2.8,1.2-4,2.1c-1.2,0.9-2.2,1.9-2.9,3.1
	c-0.8,1.1-1.3,2.2-1.7,3.3C335.3,50.8,334.9,52.2,334.6,53.9z"/>
<path id="XMLID_136_" class="st0" d="M434.6,88.7c-3-0.1-5.4-0.1-7.1-0.1c-1.8,0-4.4,0-7.6,0.1l0.5-9.6c-1.6,2.1-3,3.7-4.2,4.8
	c-1.2,1.1-2.6,2.2-4.3,3.2s-3.5,1.7-5.5,2.2c-2,0.5-4,0.7-6.2,0.7c-3.5,0-6.8-0.6-9.9-1.9c-3.1-1.3-5.7-3.1-7.9-5.4
	c-2.2-2.3-3.8-5.1-4.8-8.3c-1-3.2-1.5-6.6-1.5-10c0-4.8,0.9-9.5,2.7-14.1c1.8-4.6,4.3-8.3,7.5-11.1c3.2-2.8,6.8-4.8,10.8-6
	c4-1.2,8.4-1.8,13-1.8c3.3,0,7.1,0.3,11.3,0.9c0.3-4.8,0.4-9.8,0.4-15v-3.7c3.5,0.1,6.1,0.1,7.9,0.1c2.4,0,5.1,0,8-0.1
	c-0.8,9.3-1.6,22-2.3,38.1C435,67.6,434.6,80,434.6,88.7z M421,42.7c-2.8-0.7-5.4-1.1-7.9-1.1c-2.9,0-5.7,0.4-8.3,1.2
	c-2.6,0.8-5,2.2-7,4.1s-3.6,4.4-4.7,7.5c-1.1,3-1.7,6-1.7,8.8c0,2.8,0.5,5.4,1.5,7.8c1,2.3,2.6,4.2,4.7,5.6c2.1,1.4,4.5,2,7.2,2
	c2,0,3.9-0.4,5.5-1.1c1.7-0.7,3.2-1.8,4.5-3.3c1.4-1.5,2.5-3.4,3.4-5.8c0.9-2.3,1.6-5.5,2-9.4C420.6,56.3,420.8,50.8,421,42.7z"/>
<path id="XMLID_134_" class="st0" d="M435.7,113.9c-0.7-5.5-1.2-9.5-1.6-11.9c3.5,1.7,6.8,2.5,10,2.5c1,0,1.9-0.1,2.9-0.4
	c1-0.2,1.9-0.6,2.8-1c0.6-0.3,1.1-0.7,1.7-1.3c0.6-0.5,1.3-1.6,2.3-3c1-1.5,1.9-2.9,2.6-4.3c0.6-1.2,1.2-2.8,1.8-4.6l-11.4-33.5
	l-8.4-23.7c3.9,0.1,6.6,0.1,8.3,0.1c1.9,0,4.5,0,7.7-0.1c0.8,3,1.5,5.7,2.1,7.9l5.2,17.3c1.6,5.3,2.8,9.3,3.5,12
	c0.4,1.8,1,4.1,1.5,7c1.1-3.3,2.1-6.1,2.9-8.1c1.4-3.8,3.4-8.9,6-15.3l5.3-13.2c1-2.3,1.9-4.9,2.9-7.6c3.3,0.1,5.8,0.1,7.5,0.1
	c1.6,0,4.2,0,7.9-0.1l-21.2,47.5l-9.2,21c-1.3,2.7-2.5,4.8-3.7,6.3c-1,1.3-2,2.4-3.1,3.3c-1.1,0.9-2.3,1.6-3.5,2.2
	c-1.6,0.7-3.3,1.3-5.1,1.8c-2.1,0.4-4.2,0.7-6.3,0.7c-1.2,0-2.9-0.1-5.1-0.3C439.9,114.8,437.8,114.4,435.7,113.9z"/>
<path id="XMLID_131_" class="st0" d="M501,88.7c0.6-5.5,1-10.1,1.2-13.8c0.4-5.9,0.7-12.6,1-20.3c0.3-7.7,0.5-15,0.6-21.9
	c3.6,0.1,6.3,0.1,8,0.1c1.6,0,4.3,0,8-0.1c-0.5,6.4-0.9,12.5-1.2,18.3c-0.3,5.8-0.5,12.4-0.7,19.9c-0.1,7.5-0.2,13.4-0.2,17.8
	c-3.3-0.1-6-0.1-8-0.1C507.8,88.6,504.9,88.6,501,88.7z M504,23.1c0.1-3.8,0.2-6.7,0.2-8.7v-1.8c3.3,0.1,6.1,0.1,8.1,0.1
	c2.9,0,5.5,0,8-0.1c-0.1,0.9-0.2,2-0.2,3.1l-0.3,7.3c-2.8-0.1-5.4-0.1-7.7-0.1C509.8,23,507.1,23,504,23.1z"/>
<path id="XMLID_129_" class="st0" d="M525.1,88.7c0.8-8.3,1.5-17.7,2.1-28.1c0.6-10.4,0.9-19.7,1-27.9c3.4,0.1,6.1,0.1,8.1,0.1
	c2.4,0,4.9,0,7.6-0.1l-0.6,9.4c1.1-1.6,2.1-2.9,3-3.9c0.9-1,2-1.9,3.3-2.8c1.3-0.9,2.8-1.7,4.3-2.2c1.5-0.6,3.2-1,5.1-1.3
	c1.9-0.3,3.9-0.5,5.9-0.5c3.3,0,6.4,0.4,9.4,1.2c3,0.8,5.4,2.1,7.2,3.9c1.8,1.8,3,3.8,3.6,5.9c0.6,2.1,0.9,4.4,0.9,6.8
	c0,1-0.1,2.6-0.2,4.7L584.7,78c-0.1,3.3-0.2,6.9-0.3,10.7c-2.9-0.1-5.4-0.1-7.4-0.1c-2.8,0-5.6,0-8.4,0.1c0.3-3.2,0.7-8.8,1.1-16.7
	c0.4-7.9,0.7-13.2,0.7-15.8c0-2.9-0.5-5.2-1.4-7c-0.9-1.8-2.3-3.1-4.3-4c-1.9-0.9-4-1.4-6.2-1.4c-2.2,0-4.3,0.4-6.2,1.3
	c-1.9,0.8-3.6,2.1-5,3.7c-1.5,1.7-2.6,3.7-3.4,6.1c-0.8,2.6-1.5,6.8-1.9,12.7c-0.4,5.2-0.7,12.3-0.9,21.1c-2.8-0.1-5.4-0.1-7.7-0.1
	C531.2,88.6,528.4,88.6,525.1,88.7z"/>
</svg>
